<?xml version="1.0" standalone="no"?>
<!DOCTYPE svg PUBLIC "-//W3C//DTD SVG 20010904//EN"
 "http://www.w3.org/TR/2001/REC-SVG-20010904/DTD/svg10.dtd">
<svg version="1.0" xmlns="http://www.w3.org/2000/svg"
 width="700.000000pt" height="700.000000pt" viewBox="0 0 700.000000 700.000000"
 preserveAspectRatio="xMidYMid meet">
<metadata>
Created by potrace 1.14, written by Peter Selinger 2001-2017
</metadata>
<g transform="translate(0.000000,700.000000) scale(0.100000,-0.100000)"
fill="#000000" stroke="none">
<path d="M3215 6990 c-848 -76 -1598 -424 -2190 -1015 -538 -537 -880 -1219
-989 -1975 -215 -1488 543 -2947 1883 -3624 698 -353 1507 -461 2282 -305 720
145 1389 522 1881 1063 896 984 1159 2373 686 3624 -61 161 -206 454 -298 600
-152 243 -395 535 -597 718 -546 497 -1191 797 -1923 895 -167 23 -575 33
-735 19z m-155 -1996 l62 -256 81 80 c122 118 222 159 349 142 84 -12 145 -47
240 -138 l87 -84 10 39 c5 21 33 136 62 256 l53 217 107 0 107 0 10 -47 c6
-27 52 -262 102 -523 l92 -475 383 -378 c442 -435 439 -431 440 -577 0 -138
-15 -162 -286 -430 l-227 -225 84 -425 c46 -234 83 -431 84 -437 0 -10 -27
-13 -104 -13 l-104 0 -10 48 c-6 26 -138 707 -293 1514 -156 807 -287 1461
-290 1455 -4 -7 -139 -555 -300 -1219 -162 -665 -296 -1208 -299 -1208 -3 0
-138 543 -299 1208 -162 664 -297 1213 -300 1220 -4 6 -44 -183 -90 -420 -46
-238 -177 -917 -292 -1508 -115 -591 -209 -1078 -209 -1082 0 -5 -47 -8 -105
-8 -81 0 -105 3 -105 13 0 8 36 200 80 427 44 227 80 421 80 430 0 10 -101
116 -225 237 -266 260 -279 281 -280 423 0 152 -26 121 717 850 l106 105 97
500 c53 275 99 510 102 523 5 21 9 22 113 22 l108 0 62 -256z m200 -3069 c151
-154 180 -175 240 -175 56 0 92 24 190 125 36 36 194 192 351 346 l286 279 25
-126 25 -125 -329 -323 c-211 -208 -347 -333 -378 -350 -103 -56 -244 -56
-343 2 -67 40 -697 658 -697 685 0 12 10 70 21 129 l22 108 236 -229 c130
-126 288 -282 351 -346z"/>
<path d="M3435 4735 c-17 -8 -81 -66 -143 -128 l-112 -112 158 -647 c86 -356
160 -644 163 -640 4 4 77 295 162 647 l156 640 -22 24 c-12 12 -71 68 -130
124 -101 93 -111 100 -155 104 -30 2 -58 -2 -77 -12z"/>
<path d="M2244 3575 c-139 -135 -257 -258 -264 -275 -7 -17 -10 -48 -7 -72 5
-38 20 -56 171 -207 91 -91 167 -163 170 -161 6 7 188 951 184 956 -2 1 -116
-107 -254 -241z"/>
<path d="M4500 3813 c0 -20 181 -948 186 -953 7 -7 314 302 330 332 18 34 18
82 0 116 -8 15 -77 88 -153 162 -76 74 -189 184 -250 245 -62 60 -113 104
-113 98z"/>
</g>
</svg>
