<svg width="24" height="24" viewBox="0 0 24 24" fill="none" xmlns="http://www.w3.org/2000/svg">
<path fill-rule="evenodd" clip-rule="evenodd" d="M6.62143 3.18953C10.3785 2.92027 14.1523 2.93794 17.9064 3.24236L20.1689 3.42583C21.878 3.56441 23.265 4.7977 23.5248 6.40983L23.6676 7.29533C24.152 10.3002 24.1067 13.3608 23.5336 16.3515C23.2509 17.8272 21.899 18.8996 20.3215 18.8996H7.81365C7.52589 18.8996 7.24261 18.9674 6.98913 19.0969L1.53978 21.8816C1.2159 22.0471 0.824387 22.0386 0.508803 21.8592C0.193219 21.6798 0 21.3559 0 21.0063V9.72127C0 6.30475 2.76928 3.4656 6.35217 3.20882L6.62143 3.18953ZM6.61872 9.74419C5.65677 9.74419 4.87695 10.4857 4.87695 11.4004C4.87695 12.3151 5.65677 13.0566 6.61872 13.0566C7.58067 13.0566 8.36049 12.3151 8.36049 11.4004C8.36049 10.4857 7.58067 9.74419 6.61872 9.74419ZM12.1924 9.74419C11.2304 9.74419 10.4506 10.4857 10.4506 11.4004C10.4506 12.3151 11.2304 13.0566 12.1924 13.0566C13.1543 13.0566 13.9341 12.3151 13.9341 11.4004C13.9341 10.4857 13.1543 9.74419 12.1924 9.74419ZM16.0243 11.4004C16.0243 10.4857 16.8041 9.74419 17.766 9.74419C18.728 9.74419 19.5078 10.4857 19.5078 11.4004C19.5078 12.3151 18.728 13.0566 17.766 13.0566C16.8041 13.0566 16.0243 12.3151 16.0243 11.4004Z" fill="#fff"/>
</svg>
