<svg width="1390" height="147" viewBox="0 0 1390 147" fill="none" xmlns="http://www.w3.org/2000/svg">
    <path
        d="M10.9141 2.8125H32.7891L73.9023 112.48L114.918 2.8125H136.793L82.4961 145H65.1133L10.9141 2.8125ZM0.953125 2.8125H21.7539L25.3672 97.7344V145H0.953125V2.8125ZM125.953 2.8125H146.852V145H122.34V97.7344L125.953 2.8125ZM302.125 2.8125V145H277.613V2.8125H302.125ZM521.656 125.566V145H450.27V125.566H521.656ZM457.105 2.8125V145H432.594V2.8125H457.105ZM729.664 125.566V145H658.277V125.566H729.664ZM665.113 2.8125V145H640.602V2.8125H665.113ZM923.414 108.379C923.414 105.449 922.958 102.845 922.047 100.566C921.201 98.2878 919.671 96.2044 917.457 94.3164C915.243 92.4284 912.118 90.6055 908.082 88.8477C904.111 87.0247 899.033 85.1693 892.848 83.2812C886.077 81.1979 879.827 78.8867 874.098 76.3477C868.434 73.7435 863.486 70.7487 859.254 67.3633C855.022 63.9128 851.734 59.974 849.391 55.5469C847.047 51.0547 845.875 45.8789 845.875 40.0195C845.875 34.2253 847.079 28.9518 849.488 24.1992C851.962 19.4466 855.445 15.3451 859.938 11.8945C864.495 8.37891 869.866 5.67708 876.051 3.78906C882.236 1.83594 889.072 0.859375 896.559 0.859375C907.105 0.859375 916.188 2.8125 923.805 6.71875C931.487 10.625 937.379 15.8659 941.48 22.4414C945.647 29.0169 947.73 36.276 947.73 44.2188H923.414C923.414 39.5312 922.405 35.3971 920.387 31.8164C918.434 28.1706 915.439 25.306 911.402 23.2227C907.431 21.1393 902.385 20.0977 896.266 20.0977C890.471 20.0977 885.654 20.9766 881.812 22.7344C877.971 24.4922 875.107 26.8685 873.219 29.8633C871.331 32.8581 870.387 36.2435 870.387 40.0195C870.387 42.6888 871.005 45.1302 872.242 47.3438C873.479 49.4922 875.367 51.5104 877.906 53.3984C880.445 55.2214 883.635 56.9466 887.477 58.5742C891.318 60.2018 895.842 61.7643 901.051 63.2617C908.928 65.6055 915.797 68.2096 921.656 71.0742C927.516 73.8737 932.398 77.0638 936.305 80.6445C940.211 84.2253 943.141 88.2943 945.094 92.8516C947.047 97.3438 948.023 102.454 948.023 108.184C948.023 114.173 946.819 119.577 944.41 124.395C942.001 129.147 938.551 133.216 934.059 136.602C929.632 139.922 924.293 142.493 918.043 144.316C911.858 146.074 904.957 146.953 897.34 146.953C890.504 146.953 883.766 146.042 877.125 144.219C870.549 142.396 864.56 139.629 859.156 135.918C853.753 132.142 849.456 127.454 846.266 121.855C843.076 116.191 841.48 109.583 841.48 102.031H865.992C865.992 106.654 866.773 110.592 868.336 113.848C869.964 117.103 872.21 119.772 875.074 121.855C877.939 123.874 881.259 125.371 885.035 126.348C888.876 127.324 892.978 127.812 897.34 127.812C903.069 127.812 907.854 126.999 911.695 125.371C915.602 123.743 918.531 121.465 920.484 118.535C922.438 115.605 923.414 112.22 923.414 108.379ZM1162.77 125.566V145H1087.28V125.566H1162.77ZM1094.21 2.8125V145H1069.7V2.8125H1094.21ZM1152.91 62.1875V81.3281H1087.28V62.1875H1152.91ZM1162.28 2.8125V22.3438H1087.28V2.8125H1162.28ZM1296.36 2.8125L1329.37 70.6836L1362.38 2.8125H1389.53L1341.68 92.6562V145H1316.97V92.6562L1269.12 2.8125H1296.36Z"
        fill="black" />
</svg>