<svg width="194" height="22" viewBox="0 0 194 22" fill="none" xmlns="http://www.w3.org/2000/svg">
    <path
        d="M22.2597 21.316H19.2637V5.16L12.9077 21.176H10.4437L3.8637 5.16V21.316H0.839703V0.427998H4.8717L11.6477 17.032L18.2277 0.427998H22.2597V21.316ZM44.6807 21.204H41.6007V0.483999H44.6807V21.204ZM73.7342 21.204H63.2062V0.483999H66.2302V18.32H73.7342V21.204ZM101.297 21.204H90.7687V0.483999H93.7927V18.32H101.297V21.204ZM128.047 3.648C127.114 3.18133 125.863 2.948 124.295 2.948C121.869 2.948 120.655 3.844 120.655 5.636C120.655 6.49467 121.411 7.4 122.923 8.352C124.174 9.15467 125.154 9.78933 125.863 10.256C126.573 10.7227 127.002 11.0307 127.151 11.18C128.663 12.5053 129.419 14.036 129.419 15.772C129.419 17.7133 128.673 19.2347 127.179 20.336C125.91 21.2693 124.389 21.736 122.615 21.736C120.842 21.736 119.218 21.4093 117.743 20.756L118.107 17.648C119.507 18.432 121.047 18.824 122.727 18.824C125.21 18.824 126.451 17.732 126.451 15.548C126.451 14.6893 125.695 13.756 124.183 12.748C122.821 11.8333 121.785 11.1333 121.075 10.648C120.385 10.1627 120.011 9.90133 119.955 9.864C118.462 8.576 117.715 7.16667 117.715 5.636C117.715 3.9 118.387 2.50933 119.731 1.464C120.945 0.530666 122.475 0.0639997 124.323 0.0639997C125.854 0.0639997 127.263 0.306666 128.551 0.791999L128.047 3.648ZM158.397 21.316H147.757V0.427998H158.089V3.284H150.809V9.108H157.697V11.964H150.809V18.432H158.397V21.316ZM193.507 0.427998L185.779 12.496V21.316H182.727V12.496L174.999 0.427998H178.639L184.239 9.612L190.007 0.427998H193.507Z"
        fill="white" />
</svg>