<svg xmlns="http://www.w3.org/2000/svg" width="45.53mm" height="49.29mm" viewBox="0 0 129.05 139.72">
  <defs>
    <style>
      .a {
        fill: #1d1d1b;
      }
    </style>
  </defs>
  <g>
    <path class="a" d="M95.05,103.24l-27,27a5,5,0,0,1-7,0l-27-27-1.81,9.51,23.17,23.17a13,13,0,0,0,18.33,0l23.17-23.17Z"/>
    <path class="a" d="M125.25,66,98.56,39.34,91.11.11l0-.11h-8l-4.6,19.26-4.79-4.79a13,13,0,0,0-18.33,0l-4.79,4.79L46,0h-8l0,.11L30.49,39.34,3.8,66a13,13,0,0,0,0,18.33L19,99.6l-6.28,33.05h7.82L30.78,79,42.3,18.33l22.22,92.94L86.75,18.33,98.27,79l10.2,53.67h7.82L110,99.6l15.24-15.24A13,13,0,0,0,125.25,66ZM20.85,90.1,9.45,78.7a5,5,0,0,1,0-7L27.84,53.31ZM64.52,77.62,52.75,28.39,61,20.12a5,5,0,0,1,7,0l8.27,8.27ZM119.6,78.7,108.2,90.1l-7-36.79L119.6,71.69A5,5,0,0,1,119.6,78.7Z"/>
  </g>
</svg>
